<svg xmlns="http://www.w3.org/2000/svg" width="1200" height="630" viewBox="0 0 1200 630">
  <rect width="1200" height="630" fill="#f7f3ea"/>
  <path d="M0 0h1200v18H0z" fill="#e99a2e"/>
  <circle cx="1105" cy="-10" r="260" fill="#dcece5"/>
  <circle cx="1120" cy="570" r="170" fill="none" stroke="#e99a2e" stroke-width="2" opacity=".55"/>
  <rect x="72" y="82" width="96" height="96" rx="30" fill="#0f5c49"/>
  <path d="M139 113c-4.8-3.7-11.1-5.5-17.3-4.8-9.2 1-15.4 6.4-15.4 13.5 0 8 7 10.7 15.8 12 9.5 1.4 14.2 4 14.2 10.3 0 6.7-6.3 11.7-15 12.3-6.9.6-13.7-1.7-18.7-6.3" fill="none" stroke="#fffaf0" stroke-linecap="round" stroke-width="8"/>
  <circle cx="144.5" cy="106.5" r="8" fill="#e99a2e"/>
  <text x="72" y="286" fill="#17312a" font-family="Georgia, 'Times New Roman', serif" font-size="82" font-weight="700">Samadhannn</text>
  <text x="76" y="360" fill="#40534d" font-family="Arial, Helvetica, sans-serif" font-size="38">Clear answers. Practical solutions.</text>
  <rect x="76" y="416" width="250" height="8" rx="4" fill="#0f5c49"/>
  <rect x="340" y="416" width="96" height="8" rx="4" fill="#e99a2e"/>
  <text x="76" y="500" fill="#62756f" font-family="Arial, Helvetica, sans-serif" font-size="26">Technology  •  Health  •  Business</text>
  <rect x="906" y="236" width="210" height="38" rx="19" fill="#0f5c49" opacity=".14"/>
  <rect x="850" y="300" width="266" height="38" rx="19" fill="#e99a2e" opacity=".18"/>
  <rect x="948" y="364" width="168" height="38" rx="19" fill="#0f5c49" opacity=".1"/>
</svg>
