<svg xmlns="http://www.w3.org/2000/svg" viewBox="0 0 1200 630" role="img" aria-labelledby="title desc">
  <title id="title">Pack for one week with only a carry-on</title>
  <desc id="desc">An organized green carry-on suitcase beside a seven-day packing checklist</desc>
  <rect width="1200" height="630" fill="#f7f3ea"/>
  <path d="M0 520C240 460 342 610 585 540s369-17 615-79v169H0Z" fill="#dcece5"/>
  <circle cx="1075" cy="82" r="205" fill="#ffe8c1"/>
  <rect x="70" y="64" width="74" height="74" rx="24" fill="#0f5c49"/>
  <path d="M122 87c-3.4-2.7-8-4-12.5-3.5-6.6.8-11 4.6-11 9.7 0 5.7 5 7.7 11.4 8.7 6.8 1 10.2 2.8 10.2 7.3 0 4.8-4.6 8.4-10.8 8.8-5 .4-9.9-1.2-13.5-4.5" fill="none" stroke="#fffaf0" stroke-linecap="round" stroke-width="5.7"/>
  <circle cx="126" cy="82.5" r="5.6" fill="#e99a2e"/>
  <text x="165" y="91" fill="#17312a" font-family="Georgia, serif" font-size="34" font-weight="700">Samadhannn</text>
  <text x="72" y="238" fill="#0f5c49" font-family="Arial, sans-serif" font-size="22" font-weight="700" letter-spacing="4">SMARTER TRAVEL</text>
  <text x="70" y="316" fill="#17312a" font-family="Georgia, serif" font-size="56" font-weight="700">One week.</text>
  <text x="70" y="382" fill="#17312a" font-family="Georgia, serif" font-size="56" font-weight="700">One carry-on.</text>
  <text x="72" y="438" fill="#526861" font-family="Arial, sans-serif" font-size="25">A flexible system with room to spare.</text>
  <g transform="translate(735 145)">
    <path d="M119 68V35c0-19 15-34 34-34h40c19 0 34 15 34 34v33" fill="none" stroke="#17312a" stroke-width="14"/>
    <rect x="56" y="62" width="238" height="353" rx="38" fill="#0f5c49"/>
    <path d="M93 119h164M93 175h164M93 231h164" stroke="#fffaf0" stroke-width="11" stroke-linecap="round" opacity=".78"/>
    <rect x="96" y="289" width="158" height="76" rx="19" fill="#e99a2e"/>
    <path d="m126 326 20 20 54-54" fill="none" stroke="#fffaf0" stroke-width="11" stroke-linecap="round" stroke-linejoin="round"/>
    <circle cx="109" cy="430" r="17" fill="#17312a"/>
    <circle cx="241" cy="430" r="17" fill="#17312a"/>
    <path d="M339 94h72M339 149h72M339 204h72M339 259h72" stroke="#8a6a37" stroke-width="9" stroke-linecap="round"/>
    <circle cx="318" cy="94" r="7" fill="#e99a2e"/>
    <circle cx="318" cy="149" r="7" fill="#e99a2e"/>
    <circle cx="318" cy="204" r="7" fill="#e99a2e"/>
    <circle cx="318" cy="259" r="7" fill="#e99a2e"/>
  </g>
  <rect x="72" y="507" width="278" height="8" rx="4" fill="#0f5c49"/>
  <rect x="365" y="507" width="104" height="8" rx="4" fill="#e99a2e"/>
</svg>
